<?xml version="1.0" ?><!DOCTYPE svg  PUBLIC '-//W3C//DTD SVG 1.1//EN'  'http://www.w3.org/Graphics/SVG/1.1/DTD/svg11.dtd'><svg xmlns="http://www.w3.org/2000/svg" xmlns:xlink="http://www.w3.org/1999/xlink" version="1.1" viewBox="0 0 1280 1024" xml:space="preserve">
<desc>Created with Fabric.js 5.3.0</desc>
<defs>
</defs>
<g transform="matrix(1 0 0 1 640 512)" id="background-logo">
<rect style="stroke: none; stroke-width: 0; stroke-dasharray: none; stroke-linecap: butt; stroke-dashoffset: 0; stroke-linejoin: miter; stroke-miterlimit: 4; fill: rgb(255,255,255); fill-opacity: 0; fill-rule: nonzero; opacity: 1;" paint-order="stroke" x="-640" y="-512" rx="0" ry="0" width="1280" height="1024"/>
</g>
<g transform="matrix(1.9211538461538462 0 0 1.9211538461538462 639.7075043269231 506.25705638461534)" id="text-logo">
<g style="" paint-order="stroke">
		<g transform="matrix(1 0 0 1 0 0)" id="text-logo-path-0">
<filter id="SVGID_392910" y="-22.967399534766326%" height="145.93479906953266%" x="-22.481235655356368%" width="144.96247131071274%">
	<feGaussianBlur in="SourceAlpha" stdDeviation="0"/>
	<feOffset dx="7.404255319148937" dy="1.8510638297872342" result="oBlur"/>
	<feFlood flood-color="rgb(255,70,163)" flood-opacity="1"/>
	<feComposite in2="oBlur" operator="in"/>
	<feMerge>
		<feMergeNode/>
		<feMergeNode in="SourceGraphic"/>
	</feMerge>
</filter>
<path style="stroke: rgb(0,0,0); stroke-width: 7.404255319148935; stroke-dasharray: none; stroke-linecap: butt; stroke-dashoffset: 0; stroke-linejoin: miter; stroke-miterlimit: 4; fill: rgb(255,255,255); fill-rule: nonzero; opacity: 1;filter: url(#SVGID_392910);" paint-order="stroke" transform=" translate(-149.905, 30.32)" d="M 17.75 0.87 L 17.75 0.87 Q 12.88 0.87 9 -1.44 Q 5.13 -3.74 2.91 -7.79 Q 0.7 -11.83 0.7 -16.88 L 0.7 -16.88 L 0.7 -20.88 Q 0.7 -21.23 1.04 -21.23 L 1.04 -21.23 L 10.88 -21.23 Q 11.22 -21.23 11.22 -20.79 L 11.22 -20.79 L 11.22 -16.88 Q 11.22 -13.66 13.05 -11.66 Q 14.88 -9.66 17.75 -9.66 L 17.75 -9.66 Q 20.36 -9.66 22.27 -11.83 Q 24.19 -14.01 24.19 -16.88 L 24.19 -16.88 L 24.19 -60.12 Q 24.19 -60.47 24.53 -60.47 L 24.53 -60.47 L 34.28 -60.47 Q 34.63 -60.47 34.63 -60.03 L 34.63 -60.03 L 34.71 -16.88 Q 34.71 -12.09 32.41 -8.05 Q 30.1 -4 26.27 -1.57 Q 22.45 0.87 17.75 0.87 Z M 61.51 0.87 L 61.51 0.87 Q 56.81 0.87 52.94 -1.52 Q 49.07 -3.92 46.72 -7.87 Q 44.37 -11.83 44.37 -16.62 L 44.37 -16.62 L 44.46 -44.2 Q 44.46 -48.98 46.76 -52.9 Q 49.07 -56.81 52.98 -59.16 Q 56.9 -61.51 61.51 -61.51 L 61.51 -61.51 Q 66.21 -61.51 70.04 -59.16 Q 73.86 -56.81 76.17 -52.9 Q 78.47 -48.98 78.47 -44.2 L 78.47 -44.2 L 78.56 -16.62 Q 78.56 -11.83 76.26 -7.87 Q 73.95 -3.92 70.08 -1.52 Q 66.21 0.87 61.51 0.87 Z M 61.51 -9.66 L 61.51 -9.66 Q 64.12 -9.66 66.08 -11.79 Q 68.03 -13.92 68.03 -16.62 L 68.03 -16.62 L 67.95 -44.2 Q 67.95 -47.07 66.12 -49.07 Q 64.29 -51.07 61.51 -51.07 L 61.51 -51.07 Q 58.81 -51.07 56.9 -49.11 Q 54.98 -47.15 54.98 -44.2 L 54.98 -44.2 L 54.98 -16.62 Q 54.98 -13.75 56.9 -11.7 Q 58.81 -9.66 61.51 -9.66 Z M 106.92 0 L 91.35 0 Q 91 0 91 -0.44 L 91 -0.44 L 91.18 -60.2 Q 91.18 -60.55 91.52 -60.55 L 91.52 -60.55 L 108.23 -60.55 Q 113.19 -60.55 117.1 -58.16 Q 121.02 -55.77 123.28 -51.85 Q 125.54 -47.94 125.54 -43.33 L 125.54 -43.33 Q 125.54 -39.59 123.84 -36.37 Q 122.15 -33.15 119.8 -31.15 L 119.8 -31.15 Q 122.32 -28.62 123.71 -25.32 Q 125.11 -22.01 125.11 -18.36 L 125.11 -18.36 Q 125.11 -13.31 122.67 -9.14 Q 120.23 -4.96 116.1 -2.48 Q 111.97 0 106.92 0 L 106.92 0 Z M 101.62 -50.2 L 101.62 -36.54 L 108.23 -36.54 Q 111.27 -36.54 113.14 -38.67 Q 115.01 -40.8 115.01 -43.33 L 115.01 -43.33 Q 115.01 -46.11 113.01 -48.15 Q 111.01 -50.2 108.23 -50.2 L 108.23 -50.2 L 101.62 -50.2 Z M 101.62 -26.01 L 101.53 -10.61 L 106.92 -10.61 Q 110.06 -10.61 112.32 -12.92 Q 114.58 -15.23 114.58 -18.36 L 114.58 -18.36 Q 114.58 -21.49 112.32 -23.75 Q 110.06 -26.01 106.92 -26.01 L 106.92 -26.01 L 101.62 -26.01 Z M 146.68 0 L 137.98 0 Q 137.29 0 137.29 -0.61 L 137.29 -0.61 L 137.2 -59.86 Q 137.2 -60.55 137.9 -60.55 L 137.9 -60.55 L 145.73 -60.55 L 160.43 -26.27 L 159.99 -59.86 Q 159.99 -60.55 160.78 -60.55 L 160.78 -60.55 L 169.39 -60.55 Q 169.91 -60.55 169.91 -59.86 L 169.91 -59.86 L 170 -0.52 Q 170 0 169.56 0 L 169.56 0 L 161.91 0 L 146.86 -32.02 L 147.47 -0.7 Q 147.47 0 146.68 0 L 146.68 0 Z M 211.85 0 L 183.74 0 Q 183.4 0 183.4 -0.44 L 183.4 -0.44 L 183.48 -60.2 Q 183.48 -60.55 183.83 -60.55 L 183.83 -60.55 L 211.76 -60.55 Q 212.11 -60.55 212.11 -60.12 L 212.11 -60.12 L 212.11 -50.37 Q 212.11 -50.03 211.76 -50.03 L 211.76 -50.03 L 193.92 -50.03 L 193.92 -36.45 L 211.76 -36.45 Q 212.11 -36.45 212.11 -36.11 L 212.11 -36.11 L 212.19 -26.27 Q 212.19 -25.93 211.85 -25.93 L 211.85 -25.93 L 193.92 -25.93 L 193.92 -10.7 L 211.85 -10.7 Q 212.19 -10.7 212.19 -10.27 L 212.19 -10.27 L 212.19 -0.35 Q 212.19 0 211.85 0 L 211.85 0 Z M 240.03 0.87 L 240.03 0.87 Q 235.34 0.87 231.46 -1.52 Q 227.59 -3.92 225.29 -7.87 Q 222.98 -11.83 222.98 -16.62 L 222.98 -16.62 L 222.98 -20.62 Q 222.98 -21.05 223.42 -21.05 L 223.42 -21.05 L 233.16 -21.05 Q 233.51 -21.05 233.51 -20.62 L 233.51 -20.62 L 233.51 -16.62 Q 233.51 -13.75 235.42 -11.7 Q 237.34 -9.66 240.03 -9.66 L 240.03 -9.66 Q 242.73 -9.66 244.64 -11.75 Q 246.56 -13.83 246.56 -16.62 L 246.56 -16.62 Q 246.56 -19.84 242.38 -22.19 L 242.38 -22.19 Q 240.99 -22.97 238.03 -24.62 Q 235.07 -26.27 232.46 -27.75 L 232.46 -27.75 Q 227.68 -30.54 225.37 -34.76 Q 223.07 -38.98 223.07 -44.28 L 223.07 -44.28 Q 223.07 -49.16 225.42 -53.03 Q 227.77 -56.9 231.64 -59.16 Q 235.51 -61.42 240.03 -61.42 L 240.03 -61.42 Q 244.64 -61.42 248.52 -59.12 Q 252.39 -56.81 254.69 -52.94 Q 257 -49.07 257 -44.28 L 257 -44.28 L 257 -37.15 Q 257 -36.8 256.65 -36.8 L 256.65 -36.8 L 246.91 -36.8 Q 246.56 -36.8 246.56 -37.15 L 246.56 -37.15 L 246.47 -44.28 Q 246.47 -47.33 244.56 -49.24 Q 242.64 -51.16 240.03 -51.16 L 240.03 -51.16 Q 237.34 -51.16 235.42 -49.11 Q 233.51 -47.07 233.51 -44.28 L 233.51 -44.28 Q 233.51 -41.41 234.73 -39.5 Q 235.94 -37.58 239.16 -35.84 L 239.16 -35.84 Q 239.6 -35.58 240.86 -34.93 Q 242.12 -34.28 243.6 -33.45 Q 245.08 -32.63 246.25 -32.02 Q 247.43 -31.41 247.69 -31.23 L 247.69 -31.23 Q 252.04 -28.8 254.56 -25.27 Q 257.09 -21.75 257.09 -16.62 L 257.09 -16.62 Q 257.09 -11.66 254.78 -7.7 Q 252.47 -3.74 248.6 -1.44 Q 244.73 0.87 240.03 0.87 Z M 287.1 0 L 277.27 0 Q 276.92 0 276.92 -0.44 L 276.92 -0.44 L 276.92 -50.03 L 265.61 -50.03 Q 265.18 -50.03 265.18 -50.46 L 265.18 -50.46 L 265.26 -60.2 Q 265.26 -60.55 265.61 -60.55 L 265.61 -60.55 L 298.67 -60.55 Q 299.11 -60.55 299.11 -60.2 L 299.11 -60.2 L 299.11 -50.46 Q 299.11 -50.03 298.76 -50.03 L 298.76 -50.03 L 287.36 -50.03 L 287.45 -0.44 Q 287.45 0 287.1 0 L 287.1 0 Z" stroke-linecap="round"/>
</g>
</g>
</g>
</svg>